<svg xmlns="http://www.w3.org/2000/svg" viewBox="0 0 282.64 254.47"><defs><style>.cls-1{fill:#010101;}.cls-2{fill:#fff;}</style></defs><title>Asset 6</title><g id="Layer_2" data-name="Layer 2"><g id="Layer_1-2" data-name="Layer 1"><polygon class="cls-1" points="28.52 148.26 242.91 148.27 224.65 216.4 70.39 216.4 68.78 222.4 223.05 222.4 214.45 254.47 0 254.47 18.31 186.33 172.58 186.33 174.19 180.33 19.92 180.33 28.52 148.26"/><polygon class="cls-1" points="68.25 0 58.6 35.98 64.63 35.98 55.48 70.13 49.45 70.13 39.79 106.18 111.91 106.19 110.29 112.3 38.17 112.2 29.72 144.07 244.09 144.07 252.6 112.2 180.44 112.2 182.04 106.21 254.18 106.22 263.85 70.13 257.81 70.13 266.94 36.07 272.97 36.07 282.64 0 68.25 0"/><path class="cls-2" d="M123.73,52.53l29.65-2.87a8.06,8.06,0,0,0,7.3-5.76l10.47-28.4h0l-4.72,28.4c-.85,3.18,1,5.76,4.21,5.76l28.09,2.87h0L169.1,55.41a8,8,0,0,0-7.29,5.75L151.06,90.5h0l5-29.34c.85-3.17-1-5.75-4.21-5.75l-28.11-2.88Z"/></g></g></svg>